<?xml version="1.0" encoding="UTF-8" standalone="no"?><!DOCTYPE svg PUBLIC "-//W3C//DTD SVG 1.1//EN" "http://www.w3.org/Graphics/SVG/1.1/DTD/svg11.dtd"><svg width="100%" height="100%" viewBox="0 0 2250 512" version="1.1" xmlns="http://www.w3.org/2000/svg" xmlns:xlink="http://www.w3.org/1999/xlink" xml:space="preserve" style="fill-rule:evenodd;clip-rule:evenodd;stroke-linejoin:round;stroke-miterlimit:1.41421;"><rect x="34.559" y="-0.007" width="344.557" height="34.545" style="fill:#3575b4;"/><rect x="34.559" y="477.448" width="344.557" height="34.545" style="fill:#3575b4;"/><path d="M0.014,34.537l0,442.911l34.545,0l0,-442.911l-34.545,0Z" style="fill:#3575b4;"/><path d="M379.116,34.537l0,442.911l34.544,0l0,-442.911l-34.544,0Z" style="fill:#3575b4;"/><clipPath id="_clip1"><rect x="34.559" y="34.537" width="17.272" height="17.272"/></clipPath><g clip-path="url(#_clip1)"><path d="M17.287,34.537c9.532,0 17.272,7.74 17.272,17.273c0,-9.533 7.739,-17.273 17.272,-17.273c-9.533,0 -17.272,-7.739 -17.272,-17.272c0,9.533 -7.74,17.272 -17.272,17.272Z" style="fill:#3575b4;"/></g><clipPath id="_clip2"><rect x="0" y="-0.007" width="39.559" height="39.545"/></clipPath><g clip-path="url(#_clip2)"><path d="M79.085,39.535c0,-21.824 -17.718,-39.542 -39.542,-39.542c-21.825,0 -39.543,17.718 -39.543,39.542l0,0.005c0,21.824 17.718,39.542 39.543,39.542c21.824,0 39.542,-17.718 39.542,-39.542l0,-0.005Z" style="fill:#3575b4;"/></g><clipPath id="_clip3"><rect x="361.843" y="34.537" width="17.272" height="17.272"/></clipPath><g clip-path="url(#_clip3)"><path d="M396.388,34.537c-9.533,0 -17.272,7.74 -17.272,17.273c0,-9.533 -7.74,-17.273 -17.273,-17.273c9.533,0 17.273,-7.739 17.273,-17.272c0,9.533 7.739,17.272 17.272,17.272Z" style="fill:#3575b4;"/></g><clipPath id="_clip4"><path d="M413.66,39.537l0,-39.544l-39.544,0l0,39.544l39.544,0Z"/></clipPath><g clip-path="url(#_clip4)"><path d="M374.132,79.049c21.816,0 39.528,-17.712 39.528,-39.528c0,-21.816 -17.712,-39.528 -39.528,-39.528l-0.033,0c-21.816,0 -39.528,17.712 -39.528,39.528c0,21.816 17.712,39.528 39.528,39.528l0.033,0Z" style="fill:#3575b4;"/></g><clipPath id="_clip5"><path d="M0.007,472.441l0,39.559l39.536,0l0,-39.559l-39.536,0Z"/></clipPath><g clip-path="url(#_clip5)"><path d="M39.543,432.915c-21.821,0 -39.536,17.715 -39.536,39.535l0,0.015c0,21.82 17.715,39.535 39.536,39.535c21.82,0 39.535,-17.715 39.535,-39.535l0,-0.015c0,-21.82 -17.715,-39.535 -39.535,-39.535Z" style="fill:#3575b4;"/></g><clipPath id="_clip6"><rect x="374.116" y="472.457" width="39.545" height="39.535"/></clipPath><g clip-path="url(#_clip6)"><path d="M334.604,472.465c0,21.816 17.712,39.528 39.528,39.528c21.816,0 39.528,-17.712 39.528,-39.528l0,-0.015c0,-21.816 -17.712,-39.528 -39.528,-39.528c-21.816,0 -39.528,17.712 -39.528,39.528l0,0.015Z" style="fill:#3575b4;"/></g><clipPath id="_clip7"><path d="M361.843,477.448l0,-17.272l17.273,0l0,17.272l-17.273,0Z"/></clipPath><g clip-path="url(#_clip7)"><path d="M379.116,494.721c0,-9.533 -7.74,-17.273 -17.273,-17.273c9.533,0 17.273,-7.739 17.273,-17.272c0,9.533 7.739,17.272 17.272,17.272c-9.533,0 -17.272,7.74 -17.272,17.273Z" style="fill:#3575b4;"/></g><clipPath id="_clip8"><path d="M51.824,477.448l0,-17.272l-17.272,0l0,17.272l17.272,0Z"/></clipPath><g clip-path="url(#_clip8)"><path d="M34.552,494.721c0,-9.533 7.739,-17.273 17.272,-17.273c-9.533,0 -17.272,-7.739 -17.272,-17.272c0,9.533 -7.74,17.272 -17.273,17.272c9.533,0 17.273,7.74 17.273,17.273Z" style="fill:#3575b4;"/></g><path d="M448,85.658c0,-7.581 -6.155,-13.736 -13.736,-13.736l-3.434,0l0,72l3.434,0c7.581,0 13.736,-6.155 13.736,-13.736l0,-44.528Z" style="fill:#3575b4;"/><path d="M448,229.544c0,-7.581 -6.155,-13.736 -13.736,-13.736l-3.434,0l0,72l3.434,0c7.581,0 13.736,-6.155 13.736,-13.736l0,-44.528Z" style="fill:#3575b4;"/><path d="M448,373.49c0,-7.581 -6.155,-13.736 -13.736,-13.736l-3.434,0l0,72l3.434,0c7.581,0 13.736,-6.155 13.736,-13.736l0,-44.528Z" style="fill:#3575b4;"/><rect x="413.66" y="359.754" width="21.17" height="72" style="fill:#3575b4;"/><rect x="413.66" y="71.922" width="21.17" height="72" style="fill:#3575b4;"/><rect x="413.66" y="215.808" width="21.17" height="72" style="fill:#3575b4;"/><g><path d="M789.741,143.569c10.824,13.554 15.129,28.511 12.915,44.869c-2.214,16.359 -8.487,30.848 -18.819,43.468c-8.855,10.75 -19.433,20.097 -31.733,28.043c-12.299,7.946 -25.583,14.022 -39.851,18.228c5.412,8.413 8.241,17.878 8.487,28.394c0.246,10.517 -2.583,19.981 -8.487,28.394c-5.904,8.026 -13.16,14.44 -21.77,19.242c-8.61,4.801 -17.958,8.283 -28.043,10.445c-10.086,2.161 -20.295,3.48 -30.627,3.954c-10.331,0.475 -20.171,0.479 -29.519,0.011c-3.936,-0.482 -7.626,-2.404 -11.069,-5.767c-3.444,-3.363 -4.182,-6.965 -2.214,-10.807c12.791,-28.211 25.214,-56.222 37.268,-84.032c12.053,-27.809 24.476,-55.736 37.268,-83.779c0.984,-3.272 2.951,-5.843 5.903,-7.712c2.952,-1.87 6.396,-2.337 10.332,-1.402c3.444,0.934 6.273,3.038 8.487,6.309c2.214,3.272 2.583,6.544 1.107,9.816c-11.316,25.239 -22.509,50.478 -33.578,75.717c-11.07,25.239 -22.263,50.478 -33.578,75.717c8.855,0 17.588,-0.584 26.198,-1.753c8.61,-1.168 16.851,-3.622 24.722,-7.361c10.824,-4.674 17.712,-11.685 20.664,-21.033l0,-2.103l0,-3.505l0,-3.506l0,-0.701c-0.492,-1.869 -1.23,-4.206 -2.214,-7.011l0,-0.701l-0.738,0c0,-0.934 -0.492,-1.869 -1.476,-2.804c-0.984,-1.87 -1.722,-3.038 -2.214,-3.505l0,-0.702l-2.952,-2.804c0.492,0.467 0.492,0.467 0,0c-0.492,-0.467 -1.23,-0.935 -2.214,-1.402l0.738,0l-0.738,0l-0.738,0c-4.428,0 -7.749,-1.285 -9.963,-3.856c-2.214,-2.571 -3.321,-5.375 -3.321,-8.413c0,-3.038 1.107,-5.959 3.321,-8.764c2.214,-2.804 5.535,-4.44 9.963,-4.907c16.728,-0.935 33.455,-6.193 50.183,-15.775c16.727,-9.581 29.273,-21.149 37.637,-34.703c5.412,-9.816 7.503,-19.865 6.273,-30.147c-1.23,-10.283 -6.027,-18.696 -14.391,-25.239c-6.888,-5.609 -15.129,-9.465 -24.722,-11.568c-9.594,-2.103 -19.311,-2.688 -29.151,-1.753c-22.139,2.337 -41.326,10.75 -57.562,25.239c-9.84,9.348 -16.605,19.864 -20.295,31.549c-3.689,11.685 -5.288,23.603 -4.796,35.755c0,4.207 -1.353,7.362 -4.059,9.465c-2.706,2.103 -5.658,3.155 -8.856,3.155c-3.198,0 -6.273,-1.052 -9.225,-3.155c-2.952,-2.103 -4.428,-5.258 -4.428,-9.465c-0.984,-17.76 1.968,-34.937 8.856,-51.529c6.888,-16.593 17.958,-30.498 33.209,-41.715c10.332,-7.478 22.263,-13.554 35.792,-18.228c13.53,-4.674 27.306,-7.011 41.327,-7.011c14.022,0 27.428,2.337 40.22,7.011c12.792,4.674 23.615,12.619 32.471,23.837Z" style="fill:#2aa5ff;fill-rule:nonzero;"/><path d="M907.818,289.395c1.476,-3.74 4.059,-6.193 7.749,-7.362c3.69,-1.168 7.134,-1.285 10.332,-0.35c3.197,0.934 5.657,2.687 7.379,5.258c1.722,2.57 1.845,5.725 0.369,9.464c-2.952,7.479 -6.764,16.009 -11.438,25.59c-4.674,9.582 -10.086,18.228 -16.236,25.94c-6.15,7.712 -13.53,13.321 -22.139,16.826c-8.61,3.506 -18.327,2.922 -29.151,-1.752c-5.903,-2.337 -10.208,-5.726 -12.914,-10.166c-2.706,-4.44 -4.551,-9.231 -5.535,-14.372c-5.904,7.478 -12.546,13.788 -19.926,18.929c-7.379,5.141 -15.743,8.179 -25.091,9.114c-10.332,0.467 -18.203,-1.519 -23.615,-5.959c-5.412,-4.44 -9.102,-10.049 -11.07,-16.826c-1.968,-6.777 -2.706,-14.139 -2.214,-22.084c0.492,-7.946 1.968,-15.191 4.428,-21.734c2.952,-7.946 6.765,-16.476 11.439,-25.59c4.674,-9.114 10.331,-17.644 16.973,-25.589c6.642,-7.946 14.145,-14.723 22.509,-20.332c8.363,-5.609 17.465,-8.88 27.305,-9.815c7.38,-0.935 14.022,0.117 19.925,3.155c5.904,3.038 10.578,7.361 14.022,12.97c0.984,-1.87 1.968,-3.622 2.952,-5.258c0.984,-1.636 1.968,-3.389 2.952,-5.258c1.476,-3.272 3.936,-5.259 7.38,-5.96c3.444,-0.701 6.641,-0.467 9.593,0.701c2.952,1.169 5.289,3.155 7.011,5.96c1.722,2.804 1.845,5.842 0.369,9.114c0,0.935 -0.492,1.869 -1.476,2.804l0.738,0l-0.738,0c-4.92,11.218 -9.962,22.201 -15.128,32.951c-5.166,10.75 -9.963,21.734 -14.391,32.951c-0.492,1.87 -1.476,4.557 -2.952,8.063c-1.476,3.505 -2.706,7.127 -3.69,10.867c-0.984,3.739 -1.476,7.244 -1.476,10.516c0,3.272 0.984,5.609 2.952,7.011c2.952,2.337 5.658,3.155 8.118,2.454c2.46,-0.702 4.797,-2.104 7.011,-4.207c2.214,-2.103 4.305,-4.557 6.273,-7.361c1.968,-2.805 3.689,-5.375 5.165,-7.712c6.396,-11.218 11.808,-22.201 16.236,-32.951Zm-99.627,39.962c8.363,-8.881 15.989,-18.346 22.877,-28.394c6.888,-10.049 13.53,-20.449 19.926,-31.199c2.459,-10.282 1.23,-17.994 -3.69,-23.136c-2.46,-2.337 -5.166,-3.271 -8.118,-2.804c-2.952,0.467 -5.904,1.519 -8.856,3.155c-2.952,1.636 -5.781,3.622 -8.487,5.959c-2.706,2.337 -4.797,4.207 -6.273,5.609c-9.347,8.88 -17.588,19.864 -24.722,32.951c-7.134,13.087 -10.701,25.94 -10.701,38.56c0,4.206 0.984,7.478 2.952,9.815c-0.492,-0.468 -0.492,-0.468 0,0c0.492,0.467 0.984,0.701 1.476,0.701c0.492,0 1.107,0.117 1.845,0.35c0.738,0.234 1.599,0.117 2.583,-0.35c4.428,0 7.872,-0.935 10.332,-2.804c2.46,-1.87 5.412,-4.674 8.856,-8.413Z" style="fill:#2aa5ff;fill-rule:nonzero;"/><path d="M1027.37,293.601c0.984,-3.272 2.829,-5.609 5.535,-7.011c2.706,-1.402 5.535,-2.103 8.486,-2.103c2.952,0 5.781,1.052 8.487,3.155c2.706,2.103 4.059,4.791 4.059,8.062c0,1.87 -0.246,3.272 -0.738,4.207c-2.952,7.011 -6.273,14.606 -9.963,22.785c-3.69,8.18 -8.117,15.826 -13.283,22.939c-5.166,7.113 -10.947,13.072 -17.343,17.878c-6.396,4.805 -14.021,7.208 -22.877,7.208c-7.872,0 -15.006,-2.642 -21.402,-7.926c-6.395,-5.284 -9.593,-12.691 -9.593,-22.221c0,-7.011 1.476,-14.139 4.428,-21.383c2.951,-7.245 6.026,-14.489 9.224,-21.734c3.198,-7.244 6.273,-14.372 9.225,-21.383c2.952,-7.011 4.428,-14.022 4.428,-21.033l0,0.701l0,-4.206c0,-3.272 -0.738,-4.908 -2.214,-4.908c-0.984,0 -2.706,0.585 -5.166,1.753c-2.46,1.169 -5.289,2.571 -8.487,4.207c-3.198,1.635 -6.641,3.154 -10.331,4.557c-3.69,1.402 -7.011,2.337 -9.963,2.804c-1.476,3.739 -3.444,8.413 -5.904,14.022c-2.46,5.608 -5.043,10.983 -7.749,16.125c-2.706,5.141 -5.412,9.581 -8.118,13.32c-2.705,3.739 -5.042,5.843 -7.01,6.31c-3.936,0.935 -7.872,-0.234 -11.808,-3.505c-3.936,-3.272 -5.166,-6.778 -3.69,-10.517c3.936,-9.815 7.134,-17.527 9.594,-23.135c2.46,-5.609 4.92,-11.218 7.38,-16.827c-6.888,-3.739 -10.332,-8.88 -10.332,-15.423c0,-1.403 0.738,-4.09 2.214,-8.063c1.476,-3.973 3.321,-8.413 5.535,-13.321c2.214,-4.907 4.428,-9.815 6.642,-14.722c2.213,-4.908 4.304,-9.231 6.272,-12.97c3.936,-7.479 7.995,-12.386 12.177,-14.723c4.182,-2.337 8.118,-3.038 11.808,-2.104c3.69,0.935 6.765,2.922 9.224,5.96c2.46,3.038 3.69,6.193 3.69,9.464c0,7.011 -0.984,14.256 -2.952,21.734c-1.968,7.478 -3.689,12.853 -5.165,16.125c3.935,-1.87 7.625,-3.389 11.069,-4.557c3.444,-1.169 7.134,-1.753 11.07,-1.753c7.38,0 14.145,3.038 20.294,9.114c6.15,6.076 9.225,13.788 9.225,23.136c0,7.011 -1.476,14.372 -4.428,22.084c-2.952,7.712 -6.15,15.191 -9.593,22.435c-3.444,7.245 -6.642,14.256 -9.594,21.033c-2.952,6.777 -4.428,12.97 -4.428,18.579c0,4.673 2.952,7.01 8.856,7.01c3.444,0 6.765,-1.986 9.962,-5.959c3.198,-3.973 6.15,-8.53 8.856,-13.671c2.706,-5.141 5.289,-10.633 7.749,-16.476c2.46,-5.842 4.674,-10.866 6.642,-15.073Z" style="fill:#2aa5ff;fill-rule:nonzero;"/><path d="M1055.41,299.911c2.952,0 7.995,-1.87 15.129,-5.609c7.133,-3.739 14.267,-8.062 21.401,-12.97c7.134,-4.907 13.53,-9.932 19.188,-15.073c5.657,-5.142 8.486,-9.348 8.486,-12.62c0,-2.337 -1.476,-3.505 -4.428,-3.505c-2.459,0 -6.272,1.752 -11.438,5.258c-5.166,3.505 -10.701,7.946 -16.605,13.321c-5.904,5.375 -11.807,10.866 -17.711,16.475c-5.904,5.609 -10.578,10.516 -14.022,14.723Zm98.889,-9.815c1.476,-3.739 4.059,-6.193 7.749,-7.362c3.69,-1.168 7.134,-1.402 10.332,-0.701c3.198,0.701 5.658,2.454 7.38,5.258c1.722,2.805 1.845,6.076 0.369,9.816c-5.904,14.489 -13.653,28.043 -23.247,40.663c-9.593,12.619 -22.508,21.5 -38.744,26.641c-7.871,2.337 -16.235,3.272 -25.091,2.804c-8.856,-0.467 -16.973,-2.454 -24.353,-5.959c-7.38,-3.506 -13.407,-8.413 -18.081,-14.723c-4.674,-6.31 -6.519,-14.138 -5.535,-23.486c0,-0.935 0.123,-1.87 0.369,-2.805c0.246,-0.934 0.369,-1.869 0.369,-2.804c-2.46,3.739 -4.551,7.712 -6.273,11.919c-1.721,4.206 -3.566,8.413 -5.534,12.619c-2.952,5.141 -5.412,10.516 -7.38,16.125c-3.444,7.478 -8.856,10.283 -16.236,8.413c-3.444,-0.935 -6.273,-2.921 -8.486,-5.959c-2.214,-3.038 -2.583,-6.193 -1.107,-9.465c1.476,-3.739 2.951,-7.361 4.427,-10.867c1.476,-3.505 3.198,-7.127 5.166,-10.866l2.214,-4.207c12.792,-29.913 25.83,-59.709 39.113,-89.388c13.284,-29.68 26.567,-59.476 39.851,-89.389c3.444,-7.946 8.856,-10.984 16.236,-9.114c3.444,0.935 6.272,2.921 8.486,5.959c2.214,3.038 2.583,6.193 1.107,9.465c-1.968,4.674 -3.812,9.114 -5.534,13.32c-1.722,4.207 -3.813,8.413 -6.273,12.62c-1.476,4.207 -3.567,9.465 -6.273,15.774c-2.706,6.31 -5.535,12.737 -8.487,19.28c-2.952,6.544 -5.781,12.97 -8.487,19.28c-2.706,6.31 -5.043,11.568 -7.01,15.775c3.443,-4.674 7.871,-8.998 13.283,-12.97c5.412,-3.973 11.07,-7.011 16.974,-9.115c5.904,-2.103 11.561,-3.271 16.973,-3.505c5.412,-0.234 10.086,1.285 14.022,4.557c9.84,7.946 13.653,16.592 11.439,25.94c-2.214,9.348 -7.38,18.462 -15.498,27.343c-8.118,8.88 -17.712,16.709 -28.781,23.486c-11.07,6.777 -20.787,11.802 -29.15,15.073c-2.46,0.935 -3.198,3.973 -2.214,9.114c0.984,6.076 5.165,9.932 12.545,11.568c7.38,1.636 13.776,1.987 19.188,1.052c6.888,-0.935 12.914,-3.272 18.08,-7.011c5.166,-3.739 9.84,-8.062 14.022,-12.97c4.182,-4.908 7.749,-10.049 10.701,-15.424c2.952,-5.375 5.411,-10.633 7.379,-15.774Z" style="fill:#2aa5ff;fill-rule:nonzero;"/><path d="M1379.84,143.569c10.824,13.554 15.129,28.511 12.915,44.869c-2.214,16.359 -8.487,30.848 -18.818,43.468c-8.856,10.75 -19.434,20.097 -31.734,28.043c-12.299,7.946 -25.583,14.022 -39.851,18.228c5.412,8.413 8.241,17.878 8.487,28.394c0.246,10.517 -2.583,19.981 -8.487,28.394c-5.903,8.026 -13.16,14.44 -21.77,19.242c-8.61,4.801 -17.957,8.283 -28.043,10.445c-10.086,2.161 -20.295,3.48 -30.626,3.954c-10.332,0.475 -20.172,0.479 -29.52,0.011c-3.935,-0.482 -7.625,-2.404 -11.069,-5.767c-3.444,-3.363 -4.182,-6.965 -2.214,-10.807c12.791,-28.211 25.214,-56.222 37.268,-84.032c12.053,-27.809 24.476,-55.736 37.268,-83.779c0.984,-3.272 2.952,-5.843 5.904,-7.712c2.952,-1.87 6.395,-2.337 10.331,-1.402c3.444,0.934 6.273,3.038 8.487,6.309c2.214,3.272 2.583,6.544 1.107,9.816c-11.316,25.239 -22.508,50.478 -33.578,75.717c-11.07,25.239 -22.262,50.478 -33.578,75.717c8.856,0 17.588,-0.584 26.198,-1.753c8.61,-1.168 16.851,-3.622 24.723,-7.361c10.823,-4.674 17.711,-11.685 20.663,-21.033l0,-2.103l0,-3.505l0,-3.506l0,-0.701c-0.492,-1.869 -1.23,-4.206 -2.214,-7.011l0,-0.701l-0.738,0c0,-0.934 -0.492,-1.869 -1.476,-2.804c-0.984,-1.87 -1.722,-3.038 -2.214,-3.505l0,-0.702l-2.952,-2.804c0.492,0.467 0.492,0.467 0,0c-0.492,-0.467 -1.23,-0.935 -2.214,-1.402l0.738,0l-0.738,0l-0.738,0c-4.428,0 -7.749,-1.285 -9.962,-3.856c-2.214,-2.571 -3.321,-5.375 -3.321,-8.413c0,-3.038 1.107,-5.959 3.321,-8.764c2.213,-2.804 5.534,-4.44 9.962,-4.907c16.728,-0.935 33.455,-6.193 50.183,-15.775c16.727,-9.581 29.273,-21.149 37.637,-34.703c5.412,-9.816 7.503,-19.865 6.273,-30.147c-1.23,-10.283 -6.027,-18.696 -14.391,-25.239c-6.888,-5.609 -15.128,-9.465 -24.722,-11.568c-9.594,-2.103 -19.311,-2.688 -29.15,-1.753c-22.14,2.337 -41.327,10.75 -57.563,25.239c-9.84,9.348 -16.604,19.864 -20.294,31.549c-3.69,11.685 -5.289,23.603 -4.797,35.755c0,4.207 -1.353,7.362 -4.059,9.465c-2.706,2.103 -5.658,3.155 -8.856,3.155c-3.198,0 -6.273,-1.052 -9.225,-3.155c-2.952,-2.103 -4.427,-5.258 -4.427,-9.465c-0.984,-17.76 1.967,-34.937 8.855,-51.529c6.888,-16.593 17.958,-30.498 33.209,-41.715c10.332,-7.478 22.263,-13.554 35.792,-18.228c13.53,-4.674 27.306,-7.011 41.327,-7.011c14.022,0 27.429,2.337 40.22,7.011c12.792,4.674 23.616,12.619 32.471,23.837Z" style="fill:#2aa5ff;fill-rule:nonzero;"/><path d="M1512.67,287.291c3.936,-1.869 7.503,-2.103 10.701,-0.701c3.197,1.402 5.657,3.506 7.379,6.31c1.722,2.804 2.337,5.726 1.845,8.764c-0.492,3.038 -2.706,5.491 -6.642,7.361c-9.839,5.141 -19.925,10.166 -30.257,15.073c-10.331,4.908 -21.155,8.297 -32.471,10.166l-0.738,0c-9.348,13.554 -20.663,23.37 -33.947,29.446c-8.364,3.271 -17.096,4.79 -26.198,4.557c-9.102,-0.234 -17.097,-2.921 -23.985,-8.063c-0.984,-0.467 -1.968,-1.168 -2.952,-2.103c0,0 -0.245,-0.234 -0.737,-0.701l-2.214,-2.103c-2.46,-2.805 -4.182,-5.609 -5.166,-8.413c-4.428,-8.413 -6.519,-17.411 -6.273,-26.992c0.246,-9.582 1.968,-19.163 5.166,-28.745c3.198,-9.581 7.626,-18.695 13.283,-27.342c5.658,-8.647 11.685,-16.008 18.081,-22.084c6.888,-6.544 14.514,-11.568 22.877,-15.074c8.364,-3.505 17.466,-4.323 27.306,-2.453c9.839,1.869 18.326,5.959 25.46,12.269c7.134,6.309 11.685,14.138 13.653,23.486c1.475,7.011 1.598,14.139 0.368,21.383c-1.229,7.245 -3.074,14.139 -5.534,20.682l30.995,-14.723Zm-104.055,-17.527c-5.412,5.609 -9.84,12.62 -13.284,21.033c9.348,-2.337 18.941,-1.753 28.781,1.752c9.84,3.506 18.204,8.297 25.092,14.373l4.427,-8.413c2.46,-5.142 4.674,-11.101 6.642,-17.878c1.968,-6.777 1.722,-13.204 -0.738,-19.28c-1.968,-4.206 -5.412,-7.478 -10.331,-9.815c-4.92,-2.337 -9.594,-3.038 -14.022,-2.103c-5.412,0.934 -10.455,3.505 -15.129,7.712c-4.674,4.206 -8.486,8.413 -11.438,12.619Zm14.759,66.603c1.968,-0.934 3.69,-2.103 5.166,-3.505c1.476,-1.402 3.198,-3.038 5.166,-4.908c-3.936,-2.337 -7.626,-4.79 -11.07,-7.361c-3.444,-2.571 -7.872,-4.323 -13.283,-5.258c-7.872,-1.402 -13.284,1.168 -16.236,7.712c-0.984,1.869 -1.722,3.973 -2.214,6.31c-0.492,2.336 -0.246,4.673 0.738,7.01c0.492,0.935 1.476,2.104 2.952,3.506c3.936,3.272 8.856,4.089 14.76,2.454c5.903,-1.636 10.577,-3.623 14.021,-5.96Z" style="fill:#2aa5ff;fill-rule:nonzero;"/><path d="M1655.84,287.291c3.936,-1.869 7.503,-2.103 10.701,-0.701c3.198,1.402 5.658,3.506 7.379,6.31c1.722,2.804 2.337,5.726 1.845,8.764c-0.492,3.038 -2.705,5.491 -6.641,7.361c-9.84,5.141 -19.926,10.166 -30.258,15.073c-10.331,4.908 -21.155,8.297 -32.471,10.166l-0.738,0c-9.347,13.554 -20.663,23.37 -33.947,29.446c-8.364,3.271 -17.096,4.79 -26.198,4.557c-9.102,-0.234 -17.097,-2.921 -23.984,-8.063c-0.984,-0.467 -1.968,-1.168 -2.952,-2.103c0,0 -0.246,-0.234 -0.738,-0.701l-2.214,-2.103c-2.46,-2.805 -4.182,-5.609 -5.166,-8.413c-4.428,-8.413 -6.519,-17.411 -6.273,-26.992c0.246,-9.582 1.968,-19.163 5.166,-28.745c3.198,-9.581 7.626,-18.695 13.284,-27.342c5.657,-8.647 11.684,-16.008 18.08,-22.084c6.888,-6.544 14.514,-11.568 22.877,-15.074c8.364,-3.505 17.466,-4.323 27.306,-2.453c9.839,1.869 18.326,5.959 25.46,12.269c7.134,6.309 11.685,14.138 13.653,23.486c1.476,7.011 1.599,14.139 0.369,21.383c-1.23,7.245 -3.075,14.139 -5.535,20.682l30.995,-14.723Zm-104.055,-17.527c-5.412,5.609 -9.84,12.62 -13.284,21.033c9.348,-2.337 18.942,-1.753 28.781,1.752c9.84,3.506 18.204,8.297 25.092,14.373l4.428,-8.413c2.46,-5.142 4.673,-11.101 6.641,-17.878c1.968,-6.777 1.722,-13.204 -0.738,-19.28c-1.968,-4.206 -5.411,-7.478 -10.331,-9.815c-4.92,-2.337 -9.594,-3.038 -14.022,-2.103c-5.412,0.934 -10.455,3.505 -15.129,7.712c-4.673,4.206 -8.486,8.413 -11.438,12.619Zm14.759,66.603c1.968,-0.934 3.69,-2.103 5.166,-3.505c1.476,-1.402 3.198,-3.038 5.166,-4.908c-3.936,-2.337 -7.626,-4.79 -11.07,-7.361c-3.444,-2.571 -7.871,-4.323 -13.283,-5.258c-7.872,-1.402 -13.284,1.168 -16.236,7.712c-0.984,1.869 -1.722,3.973 -2.214,6.31c-0.492,2.336 -0.246,4.673 0.738,7.01c0.492,0.935 1.476,2.104 2.952,3.506c3.936,3.272 8.856,4.089 14.76,2.454c5.904,-1.636 10.577,-3.623 14.021,-5.96Z" style="fill:#2aa5ff;fill-rule:nonzero;"/><path d="M1679.45,299.911c2.952,0 7.995,-1.87 15.129,-5.609c7.134,-3.739 14.268,-8.062 21.401,-12.97c7.134,-4.907 13.53,-9.932 19.188,-15.073c5.658,-5.142 8.487,-9.348 8.487,-12.62c0,-2.337 -1.476,-3.505 -4.428,-3.505c-2.46,0 -6.273,1.752 -11.439,5.258c-5.166,3.505 -10.701,7.946 -16.605,13.321c-5.903,5.375 -11.807,10.866 -17.711,16.475c-5.904,5.609 -10.578,10.516 -14.022,14.723Zm98.89,-9.815c1.476,-3.739 4.059,-6.193 7.748,-7.362c3.69,-1.168 7.134,-1.402 10.332,-0.701c3.198,0.701 5.658,2.454 7.38,5.258c1.722,2.805 1.845,6.076 0.369,9.816c-5.904,14.489 -13.653,28.043 -23.246,40.663c-9.594,12.619 -22.509,21.5 -38.744,26.641c-7.872,2.337 -16.236,3.272 -25.092,2.804c-8.855,-0.467 -16.973,-2.454 -24.353,-5.959c-7.38,-3.506 -13.407,-8.413 -18.081,-14.723c-4.673,-6.31 -6.518,-14.138 -5.534,-23.486c0,-0.935 0.123,-1.87 0.369,-2.805c0.246,-0.934 0.369,-1.869 0.369,-2.804c-2.46,3.739 -4.551,7.712 -6.273,11.919c-1.722,4.206 -3.567,8.413 -5.535,12.619c-2.952,5.141 -5.412,10.516 -7.38,16.125c-3.444,7.478 -8.856,10.283 -16.235,8.413c-3.444,-0.935 -6.273,-2.921 -8.487,-5.959c-2.214,-3.038 -2.583,-6.193 -1.107,-9.465c1.476,-3.739 2.952,-7.361 4.428,-10.867c1.476,-3.505 3.198,-7.127 5.166,-10.866l2.213,-4.207c12.792,-29.913 25.83,-59.709 39.113,-89.388c13.284,-29.68 26.568,-59.476 39.851,-89.389c3.444,-7.946 8.856,-10.984 16.236,-9.114c3.444,0.935 6.273,2.921 8.487,5.959c2.214,3.038 2.583,6.193 1.107,9.465c-1.968,4.674 -3.813,9.114 -5.535,13.32c-1.722,4.207 -3.813,8.413 -6.273,12.62c-1.476,4.207 -3.567,9.465 -6.273,15.774c-2.706,6.31 -5.535,12.737 -8.487,19.28c-2.952,6.544 -5.78,12.97 -8.486,19.28c-2.706,6.31 -5.043,11.568 -7.011,15.775c3.444,-4.674 7.872,-8.998 13.283,-12.97c5.412,-3.973 11.07,-7.011 16.974,-9.115c5.904,-2.103 11.562,-3.271 16.974,-3.505c5.411,-0.234 10.085,1.285 14.021,4.557c9.84,7.946 13.653,16.592 11.439,25.94c-2.214,9.348 -7.38,18.462 -15.498,27.343c-8.118,8.88 -17.711,16.709 -28.781,23.486c-11.07,6.777 -20.786,11.802 -29.15,15.073c-2.46,0.935 -3.198,3.973 -2.214,9.114c0.984,6.076 5.166,9.932 12.546,11.568c7.379,1.636 13.775,1.987 19.187,1.052c6.888,-0.935 12.915,-3.272 18.081,-7.011c5.165,-3.739 9.839,-8.062 14.021,-12.97c4.182,-4.908 7.749,-10.049 10.701,-15.424c2.952,-5.375 5.412,-10.633 7.38,-15.774Z" style="fill:#2aa5ff;fill-rule:nonzero;"/><path d="M1804.17,231.906c1.476,-3.272 4.182,-5.259 8.118,-5.96c3.936,-0.701 7.38,-0.35 10.332,1.052c6.395,4.206 7.871,10.049 4.427,17.527c-5.411,12.152 -10.085,22.785 -14.021,31.9c-3.936,9.114 -7.872,19.747 -11.808,31.899c-0.984,3.739 -1.968,7.595 -2.952,11.568c-0.984,3.973 -1.476,8.062 -1.476,12.269c0,0.935 0.123,1.869 0.369,2.804c0.246,0.935 0.369,2.103 0.369,3.506l0.738,0.701c0,0.467 0.246,0.701 0.738,0.701c3.444,2.337 6.396,2.337 8.856,0c2.952,-2.337 5.412,-4.908 7.38,-7.712c1.968,-2.804 3.936,-5.609 5.904,-8.413c6.887,-11.685 12.545,-23.136 16.973,-34.353c1.476,-3.74 4.059,-6.193 7.749,-7.362c3.69,-1.168 7.134,-1.285 10.332,-0.35c3.198,0.934 5.78,2.687 7.748,5.258c1.968,2.57 2.214,5.725 0.738,9.464c-2.952,7.011 -6.764,15.308 -11.438,24.889c-4.674,9.582 -10.209,18.345 -16.605,26.291c-6.396,7.945 -13.775,13.788 -22.139,17.527c-8.364,3.739 -17.712,2.804 -28.044,-2.804c-9.839,-5.142 -15.128,-12.62 -15.866,-22.435c-0.738,-9.815 -0.123,-19.163 1.845,-28.044c3.444,-15.424 7.995,-29.095 13.652,-41.013c5.658,-11.919 11.685,-24.889 18.081,-38.91Zm34.685,-74.316c1.476,-3.271 4.182,-5.258 8.118,-5.959c3.936,-0.701 7.38,-0.35 10.332,1.052c6.395,4.206 7.871,10.049 4.427,17.527c-1.967,3.739 -3.32,6.427 -4.058,8.062c-0.738,1.636 -2.091,4.324 -4.059,8.063c-1.476,3.272 -4.182,5.258 -8.118,5.959c-3.936,0.701 -7.38,0.117 -10.332,-1.753c-3.444,-1.869 -5.535,-4.44 -6.273,-7.711c-0.738,-3.272 -0.369,-6.544 1.107,-9.816c1.968,-3.739 3.444,-6.309 4.428,-7.712c0.984,-1.402 2.46,-3.972 4.428,-7.712Z" style="fill:#2aa5ff;fill-rule:nonzero;"/><path d="M1963.58,292.9c1.476,-3.739 4.059,-6.193 7.749,-7.361c3.689,-1.169 7.133,-1.286 10.331,-0.351c3.198,0.935 5.658,2.688 7.38,5.258c1.722,2.571 1.845,5.726 0.369,9.465c-2.46,6.076 -5.043,12.152 -7.749,18.228c-2.706,6.076 -5.781,11.919 -9.225,17.527c-3.935,6.544 -8.609,13.204 -14.021,19.981c-5.412,6.777 -12.3,11.334 -20.664,13.671c-6.395,1.403 -13.037,1.286 -19.925,-0.35c-6.888,-1.636 -12.3,-5.025 -16.236,-10.166c-3.935,-4.206 -6.026,-9.114 -6.272,-14.723c-0.246,-5.608 0.369,-10.983 1.845,-16.125c2.459,-12.152 6.764,-23.837 12.914,-35.054c6.15,-11.217 10.455,-22.902 12.915,-35.054l0,-5.609c0,-0.467 -0.123,-1.168 -0.369,-2.103c-0.246,-0.935 -0.369,-0.935 -0.369,0c-0.984,-1.402 -1.353,-2.103 -1.107,-2.103c0.246,0 -0.123,-0.468 -1.107,-1.403c0.492,0.935 0.246,1.052 -0.738,0.351c-0.984,-0.701 -0.984,-0.818 0,-0.351c-0.492,0 -0.738,-0.116 -0.738,-0.35c0,-0.234 -0.492,-0.117 -1.476,0.35c-1.968,0 -3.444,0.468 -4.428,1.403c-4.92,2.336 -9.102,5.141 -12.546,8.413c-11.807,10.75 -21.893,23.135 -30.257,37.157c-8.364,14.022 -15.989,28.511 -22.877,43.467c-1.968,3.74 -3.813,7.596 -5.535,11.568c-1.722,3.973 -3.567,8.063 -5.535,12.269c-1.476,3.272 -3.567,5.843 -6.273,7.712c-2.706,1.87 -6.027,2.337 -9.962,1.402c-3.444,-0.934 -6.273,-3.038 -8.487,-6.309c-2.214,-3.272 -2.583,-6.544 -1.107,-9.815c1.968,-5.142 3.936,-10.049 5.904,-14.723c1.968,-4.674 4.182,-9.582 6.642,-14.723c7.871,-17.294 15.62,-34.587 23.246,-51.88c7.626,-17.294 15.374,-34.587 23.246,-51.881c3.444,-7.945 8.856,-10.984 16.236,-9.114c3.444,0.935 6.273,2.921 8.487,5.959c2.214,3.038 2.583,6.193 1.107,9.465c0,0.935 -0.246,1.636 -0.738,2.103c8.363,-5.141 16.973,-7.829 25.829,-8.062c8.856,-0.234 16.727,4.089 23.615,12.97c3.444,5.141 5.412,10.516 5.904,16.125c0.492,5.608 0.123,11.334 -1.107,17.176c-1.23,5.843 -3.198,11.685 -5.904,17.528c-2.706,5.842 -5.043,11.1 -7.011,15.774c-2.459,5.141 -4.919,10.516 -7.379,16.125c-2.46,5.609 -4.182,11.451 -5.166,17.527c-0.492,1.402 -0.861,2.454 -1.107,3.155c-0.246,0.701 -0.123,1.986 0.369,3.856l0,2.103l0.738,0c0.984,0.468 2.214,0.701 3.69,0.701c3.444,0.468 7.134,-1.168 11.069,-4.907c3.936,-4.674 7.626,-10.049 11.07,-16.125c5.904,-10.283 10.824,-20.332 14.76,-30.147Z" style="fill:#2aa5ff;fill-rule:nonzero;"/><path d="M2108.22,290.096c1.476,-3.739 3.936,-6.193 7.38,-7.362c3.444,-1.168 6.764,-1.402 9.962,-0.701c3.198,0.701 5.781,2.454 7.749,5.258c1.968,2.805 2.214,6.076 0.738,9.816c-3.936,11.684 -10.086,22.201 -18.449,31.548c-8.364,9.348 -17.466,17.995 -27.306,25.941c-15.743,13.554 -33.209,26.173 -52.396,37.858c-4.92,9.815 -9.963,19.514 -15.129,29.095c-5.166,9.582 -10.947,19.046 -17.342,28.394c-3.936,5.609 -7.995,11.218 -12.177,16.826c-4.182,5.609 -9.471,10.049 -15.867,13.321c-7.871,4.207 -16.481,4.791 -25.829,1.753c-9.348,-3.038 -15.251,-8.764 -17.711,-17.177c-3.444,-10.75 -1.968,-21.383 4.427,-31.899c6.396,-10.517 13.776,-19.046 22.14,-25.59c6.888,-5.609 14.39,-10.283 22.508,-14.022c8.118,-3.739 16.113,-7.945 23.985,-12.619c1.968,-0.935 3.69,-1.87 5.165,-2.805c1.476,-0.934 2.952,-1.869 4.428,-2.804c1.968,-3.739 3.69,-7.244 5.166,-10.516c1.476,-3.272 2.952,-6.777 4.428,-10.516c-4.428,3.739 -9.225,6.777 -14.391,9.114c-5.165,2.337 -10.7,3.739 -16.604,4.206c-10.332,0.468 -18.204,-1.519 -23.615,-5.959c-5.412,-4.44 -9.102,-10.049 -11.07,-16.826c-1.968,-6.777 -2.583,-14.139 -1.845,-22.084c0.738,-7.946 2.337,-15.191 4.797,-21.734c2.952,-7.946 6.765,-16.476 11.438,-25.59c4.674,-9.114 10.332,-17.644 16.974,-25.589c6.642,-7.946 14.022,-14.723 22.139,-20.332c8.118,-5.608 17.097,-8.88 26.937,-9.815c7.38,-0.935 14.021,0.117 19.925,3.155c5.904,3.038 10.824,7.361 14.76,12.97c0.984,-1.87 1.845,-3.622 2.583,-5.258c0.738,-1.636 1.599,-3.389 2.583,-5.258c1.968,-3.272 4.674,-5.258 8.117,-5.96c3.444,-0.701 6.642,-0.467 9.594,0.702c2.952,1.168 5.289,3.154 7.011,5.959c1.722,2.804 1.845,5.842 0.369,9.114c-7.38,17.293 -14.514,34.47 -21.401,51.53c-6.888,17.059 -14.022,34.236 -21.402,51.53c-1.968,3.739 -3.444,6.777 -4.428,9.114c1.476,-0.935 2.829,-1.87 4.059,-2.805c1.23,-0.934 2.337,-1.869 3.321,-2.804c8.364,-7.011 16.851,-14.606 25.46,-22.785c8.61,-8.18 14.883,-17.644 18.819,-28.394Zm-116.601,51.179c3.936,0 7.134,-0.935 9.594,-2.804c2.46,-1.87 5.658,-4.674 9.593,-8.413c8.364,-8.881 15.99,-18.345 22.878,-28.394c6.888,-10.049 13.53,-20.449 19.925,-31.199c0.984,-4.674 1.23,-8.997 0.738,-12.97c-0.492,-3.973 -1.968,-7.361 -4.428,-10.166c-2.46,-2.337 -5.165,-3.271 -8.117,-2.804c-2.952,0.467 -6.027,1.519 -9.225,3.155c-3.198,1.636 -6.15,3.622 -8.856,5.959c-2.706,2.337 -4.797,4.207 -6.273,5.609c-8.855,8.88 -16.85,19.864 -23.984,32.951c-7.134,13.087 -10.701,25.94 -10.701,38.56c0,3.739 0.738,7.011 2.214,9.815l0.738,0l0.738,0.701c0.492,0 1.23,0.117 2.214,0.351c0.984,0.233 1.968,0.116 2.952,-0.351Zm-20.663,108.668c3.935,-4.674 7.871,-10.049 11.807,-16.125c3.936,-6.076 7.626,-12.152 11.07,-18.228c-0.984,0.467 -2.091,0.935 -3.321,1.402c-1.23,0.468 -2.337,0.935 -3.321,1.402c-10.332,6.077 -18.449,13.555 -24.353,22.435c-0.984,1.87 -1.968,3.739 -2.952,5.609c-0.984,1.869 -1.722,3.973 -2.214,6.31l0,4.907l0.738,0c0.492,0 0.738,0.117 0.738,0.351c0,0.233 0.492,0.35 1.476,0.35l1.476,0c1.968,-0.934 2.706,-1.285 2.214,-1.051c-0.492,0.233 -0.246,-0.351 0.738,-1.753c0.984,-0.935 1.968,-1.87 2.952,-2.804c0.984,-0.935 1.968,-1.87 2.952,-2.805Z" style="fill:#2aa5ff;fill-rule:nonzero;"/></g><path d="M118.28,294.943c-25.577,0 -44.28,-29.7 -44.28,-51.672c0,-14.698 8.313,-30.154 25.737,-30.154c25.577,0 44.28,29.851 44.28,51.823c0,14.699 -8.153,30.003 -25.737,30.003l0,0Zm180.797,55.157c0,19.245 -16.625,22.275 -32.93,22.275c-21.421,0 -38.686,-13.638 -59.147,-13.638c-21.421,0 -39.644,13.486 -62.823,13.486c-15.507,0 -29.254,-5 -29.254,-22.123c0,-35.912 52.913,-89.251 92.077,-89.251c39.164,0 92.077,53.49 92.077,89.251Zm-130.282,-121.224c-25.897,0 -41.563,-30.912 -41.563,-52.126c0,-16.971 9.272,-37.125 29.893,-37.125c26.057,0 41.563,30.912 41.563,52.126c0,16.972 -9.272,37.125 -29.893,37.125Zm46.518,-37.125c0,-21.214 15.505,-52.126 41.562,-52.126c20.621,0 29.893,20.154 29.893,37.125c0,21.214 -15.666,52.126 -41.563,52.126c-20.621,0 -29.893,-20.153 -29.893,-37.125Zm124.688,51.52c0,21.973 -18.703,51.672 -44.28,51.672c-17.585,0 -25.737,-15.304 -25.737,-30.003c0,-21.971 18.703,-51.823 44.28,-51.823c17.424,0 25.737,15.456 25.737,30.154Z" style="fill:#0054a6;fill-rule:nonzero;"/></svg>